<svg width="1440" height="636" viewBox="0 0 1440 636" fill="none" xmlns="http://www.w3.org/2000/svg">
<path fill-rule="evenodd" clip-rule="evenodd" d="M-6 0L56.9167 58.8889C119.833 117.778 245.667 235.556 371.5 259.111C497.333 282.667 623.167 212 749 176.667C874.833 141.333 1000.67 141.333 1126.5 188.444C1252.33 235.556 1378.17 329.778 1441.08 376.889L1504 424V636H1441.08C1378.17 636 1252.33 636 1126.5 636C1000.67 636 874.833 636 749 636C623.167 636 497.333 636 371.5 636C245.667 636 119.833 636 56.9167 636H-6V0Z" fill="url(#paint0_linear_453_764)"/>
<circle cx="49.5" cy="494.5" r="249.5" fill="url(#paint1_linear_453_764)" fill-opacity="0.37"/>
<defs>
<linearGradient id="paint0_linear_453_764" x1="1412.38" y1="694.906" x2="-371.283" y2="441.546" gradientUnits="userSpaceOnUse">
<stop stop-color="#E6EB00"/>
<stop offset="1" stop-color="#599200"/>
</linearGradient>
<linearGradient id="paint1_linear_453_764" x1="268.721" y1="790.217" x2="-330.461" y2="754.369" gradientUnits="userSpaceOnUse">
<stop stop-color="#E6EB00"/>
<stop offset="1" stop-color="#599200"/>
</linearGradient>
</defs>
</svg>
